<svg width="80" height="80" viewBox="0 0 80 80" fill="none" xmlns="http://www.w3.org/2000/svg">
<circle cx="40" cy="40" r="40" fill="#5E1FA1" fill-opacity="0.6"/>
<path d="M46.1728 28.1832C48.4847 29.6327 50.1058 32.0856 50.401 34.9329C51.3438 35.3734 52.3902 35.6267 53.4997 35.6267C57.55 35.6267 60.8328 32.3439 60.8328 28.2943C60.8328 24.244 57.55 20.9612 53.4997 20.9612C49.4881 20.9624 46.234 24.1866 46.1728 28.1832ZM41.3688 43.1975C45.4191 43.1975 48.7019 39.9141 48.7019 35.8645C48.7019 31.8148 45.4184 28.532 41.3688 28.532C37.3191 28.532 34.0344 31.8154 34.0344 35.8651C34.0344 39.9148 37.3191 43.1975 41.3688 43.1975ZM44.4793 43.6974H38.257C33.0797 43.6974 28.8678 47.9099 28.8678 53.0871V60.6966L28.8872 60.8158L29.4113 60.9799C34.3521 62.5236 38.6445 63.0384 42.1775 63.0384C49.0781 63.0384 53.0779 61.071 53.3244 60.9456L53.8142 60.6979H53.8666V53.0871C53.8685 47.9099 49.6566 43.6974 44.4793 43.6974ZM56.6115 36.1272H50.4372C50.3704 38.5975 49.3159 40.822 47.648 42.4219C52.2498 43.7903 55.6169 48.0578 55.6169 53.0983V55.4433C61.7132 55.2199 65.2263 53.4921 65.4578 53.376L65.9476 53.1277H66V45.5157C66 40.3391 61.7881 36.1272 56.6115 36.1272ZM28.5016 35.628C29.9361 35.628 31.2708 35.2093 32.4015 34.4961C32.7609 32.1517 34.0176 30.1032 35.8128 28.708C35.8203 28.5707 35.8334 28.4347 35.8334 28.2961C35.8334 24.2458 32.55 20.9631 28.5016 20.9631C24.4506 20.9631 21.1685 24.2458 21.1685 28.2961C21.1685 32.3446 24.4506 35.628 28.5016 35.628ZM35.0871 42.4219C33.4273 40.8301 32.3765 38.6175 32.2998 36.1621C32.0708 36.1453 31.8443 36.1272 31.6109 36.1272H25.3891C20.2119 36.1272 16 40.3391 16 45.5157V53.1264L16.0193 53.2437L16.5435 53.4091C20.5071 54.6464 24.0444 55.2168 27.1169 55.3965V53.0983C27.1182 48.0578 30.484 43.7916 35.0871 42.4219Z" fill="#141414"/>
</svg>
