<svg width="80" height="80" viewBox="0 0 80 80" fill="none" xmlns="http://www.w3.org/2000/svg">
<circle cx="40" cy="40" r="40" fill="#5E1FA1" fill-opacity="0.6"/>
<path d="M28.4058 16H16.8116C16.0111 16 15.3623 16.6488 15.3623 17.4493V29.0435C15.3623 29.8439 16.0111 30.4928 16.8116 30.4928H28.4058C29.2062 30.4928 29.8551 29.8439 29.8551 29.0435V17.4493C29.8551 16.6488 29.2062 16 28.4058 16Z" fill="#141414"/>
<path d="M45.7971 16H34.2029C33.4025 16 32.7537 16.6488 32.7537 17.4493V29.0435C32.7537 29.8439 33.4025 30.4928 34.2029 30.4928H45.7971C46.5976 30.4928 47.2464 29.8439 47.2464 29.0435V17.4493C47.2464 16.6488 46.5976 16 45.7971 16Z" fill="#141414"/>
<path d="M28.4058 33.3911H16.8116C16.0111 33.3911 15.3623 34.04 15.3623 34.8404V46.4346C15.3623 47.2351 16.0111 47.8839 16.8116 47.8839H28.4058C29.2062 47.8839 29.8551 47.2351 29.8551 46.4346V34.8404C29.8551 34.04 29.2062 33.3911 28.4058 33.3911Z" fill="#141414"/>
<path d="M45.7971 33.3911H34.2029C33.4025 33.3911 32.7537 34.04 32.7537 34.8404V46.4346C32.7537 47.2351 33.4025 47.8839 34.2029 47.8839H45.7971C46.5976 47.8839 47.2464 47.2351 47.2464 46.4346V34.8404C47.2464 34.04 46.5976 33.3911 45.7971 33.3911Z" fill="#141414"/>
<path d="M63.1885 16H51.5942C50.7938 16 50.145 16.6488 50.145 17.4493V29.0435C50.145 29.8439 50.7938 30.4928 51.5942 30.4928H63.1885C63.9889 30.4928 64.6377 29.8439 64.6377 29.0435V17.4493C64.6377 16.6488 63.9888 16 63.1885 16Z" fill="#141414"/>
<path d="M63.1885 33.3911H51.5942C50.7938 33.3911 50.145 34.04 50.145 34.8404V46.4346C50.145 47.2351 50.7938 47.8839 51.5942 47.8839H63.1885C63.9889 47.8839 64.6377 47.2351 64.6377 46.4346V34.8404C64.6377 34.04 63.9888 33.3911 63.1885 33.3911Z" fill="#141414"/>
<path d="M28.4058 51.5073H16.8116C16.0111 51.5073 15.3623 52.1562 15.3623 52.9566V64.5508C15.3623 65.3512 16.0111 66.0001 16.8116 66.0001H28.4058C29.2062 66.0001 29.8551 65.3512 29.8551 64.5508V52.9566C29.8551 52.1562 29.2062 51.5073 28.4058 51.5073Z" fill="#141414"/>
<path d="M45.7971 51.5073H34.2029C33.4025 51.5073 32.7537 52.1562 32.7537 52.9566V64.5508C32.7537 65.3512 33.4025 66.0001 34.2029 66.0001H45.7971C46.5976 66.0001 47.2464 65.3512 47.2464 64.5508V52.9566C47.2464 52.1562 46.5976 51.5073 45.7971 51.5073Z" fill="#141414"/>
<path d="M63.1885 51.5073H51.5942C50.7938 51.5073 50.145 52.1562 50.145 52.9566V64.5508C50.145 65.3512 50.7938 66.0001 51.5942 66.0001H63.1885C63.9889 66.0001 64.6377 65.3512 64.6377 64.5508V52.9566C64.6377 52.1562 63.9888 51.5073 63.1885 51.5073Z" fill="#141414"/>
</svg>
