<svg width="80" height="80" viewBox="0 0 80 80" fill="none" xmlns="http://www.w3.org/2000/svg">
<circle cx="40" cy="40" r="40" fill="#5E1FA1" fill-opacity="0.6"/>
<g clip-path="url(#clip0)">
<path d="M47.451 21.0187L26.2021 32.6354L17.7559 28.1979L38.6303 17.1916C39.0985 16.9374 39.6604 16.9374 40.1521 17.1916L47.451 21.0187Z" fill="#141414"/>
<path d="M61.046 28.1979L39.4244 39.6354L31.3275 35.375L30.1569 34.7396L51.4292 23.125L52.5999 23.7583L61.046 28.1979Z" fill="#141414"/>
<path d="M37.6919 42.9312L37.6685 66.9999L16.9599 55.4603C16.3746 55.1311 16 54.4707 16 53.7603V31.4937L24.7759 36.1103V44.227C24.7759 45.2666 25.5719 46.1291 26.5318 46.1291C27.4917 46.1291 28.2878 45.2666 28.2878 44.227V37.9874L29.4584 38.5957L37.6919 42.9312Z" fill="#141414"/>
<path d="M62.802 31.5188L41.2038 42.9063L41.1804 66.975L62.8254 54.9063L62.802 31.5188Z" fill="#141414"/>
</g>
<defs>
<clipPath id="clip0">
<rect width="46.8254" height="50" fill="white" transform="translate(16 17)"/>
</clipPath>
</defs>
</svg>
