<svg width="80" height="80" viewBox="0 0 80 80" fill="none" xmlns="http://www.w3.org/2000/svg">
<circle cx="40" cy="40" r="40" fill="#5E1FA1" fill-opacity="0.6"/>
<path d="M64.1667 17H15.8333C15.3725 17 15 17.3733 15 17.8333V66.1666C15 66.6267 15.3725 67 15.8333 67H64.1666C64.6274 67 64.9999 66.6267 64.9999 66.1667V17.8333C65 17.3733 64.6275 17 64.1667 17ZM43.3333 55.3333C43.3333 59.4683 39.9691 62.8333 35.8333 62.8333C31.6975 62.8333 28.3333 59.4683 28.3333 55.3333C28.3333 54.8733 28.7058 54.5 29.1666 54.5C29.6274 54.5 29.9999 54.8733 29.9999 55.3333C29.9999 58.55 32.6174 61.1666 35.8332 61.1666C39.049 61.1666 41.6665 58.5499 41.6665 55.3333V35.3333C41.6665 34.8733 42.039 34.5 42.4998 34.5C42.9606 34.5 43.3331 34.8733 43.3331 35.3333V55.3333H43.3333ZM53.3333 47.8333C57.4691 47.8333 60.8333 51.1983 60.8333 55.3333C60.8333 59.4683 57.4691 62.8333 53.3333 62.8333C49.1975 62.8333 45.8333 59.4683 45.8333 55.3333C45.8333 54.8733 46.2058 54.5 46.6666 54.5C47.1274 54.5 47.4999 54.8733 47.4999 55.3333C47.4999 58.55 50.1174 61.1666 53.3332 61.1666C56.549 61.1666 59.1665 58.5499 59.1665 55.3333C59.1665 52.1166 56.549 49.5 53.3332 49.5C49.1974 49.5 45.8332 46.135 45.8332 42C45.8332 37.865 49.1974 34.5 53.3332 34.5C57.469 34.5 60.8332 37.865 60.8332 42C60.8332 42.46 60.4607 42.8333 59.9999 42.8333C59.5391 42.8333 59.1666 42.46 59.1666 42C59.1666 38.7833 56.5491 36.1667 53.3333 36.1667C50.1175 36.1667 47.5 38.7834 47.5 42C47.5 45.2166 50.1175 47.8333 53.3333 47.8333Z" fill="#141414"/>
</svg>
