<svg width="412" height="368" viewBox="0 0 412 368" fill="none" xmlns="http://www.w3.org/2000/svg">
<path d="M12.5781 109H10.6934V102.428H3.52539V109H1.65039V94.7812H3.52539V100.895H10.6934V94.7812H12.5781V109ZM25.4395 96.3242H20.8691V109H19.0039V96.3242H14.4434V94.7812H25.4395V96.3242ZM29.9707 94.7812L34.6191 106.383L39.2676 94.7812H41.6992V109H39.8242V103.463L40 97.4863L35.332 109H33.8965L29.2383 97.5156L29.4238 103.463V109H27.5488V94.7812H29.9707ZM46.8945 107.467H53.6328V109H45.0098V94.7812H46.8945V107.467ZM56.1328 101.871L56.8555 94.7812H64.1406V96.4512H58.3887L57.959 100.328C58.6556 99.918 59.4466 99.7129 60.332 99.7129C61.6276 99.7129 62.6562 100.143 63.418 101.002C64.1797 101.855 64.5605 103.01 64.5605 104.469C64.5605 105.934 64.1634 107.089 63.3691 107.936C62.5814 108.775 61.4779 109.195 60.0586 109.195C58.8021 109.195 57.7767 108.847 56.9824 108.15C56.1882 107.454 55.7357 106.49 55.625 105.26H57.334C57.4447 106.074 57.7344 106.689 58.2031 107.105C58.6719 107.516 59.2904 107.721 60.0586 107.721C60.8984 107.721 61.556 107.434 62.0312 106.861C62.513 106.288 62.7539 105.497 62.7539 104.488C62.7539 103.538 62.4935 102.776 61.9727 102.203C61.4583 101.624 60.7715 101.334 59.9121 101.334C59.1243 101.334 58.5059 101.507 58.0566 101.852L57.5781 102.242L56.1328 101.871Z" fill="#292929"/>
<path d="M350.109 104.488C349.934 105.992 349.377 107.154 348.439 107.975C347.508 108.788 346.268 109.195 344.719 109.195C343.039 109.195 341.691 108.593 340.676 107.389C339.667 106.184 339.162 104.573 339.162 102.555V101.188C339.162 99.8659 339.396 98.7038 339.865 97.7012C340.34 96.6986 341.011 95.9303 341.877 95.3965C342.743 94.8561 343.745 94.5859 344.885 94.5859C346.395 94.5859 347.606 95.0091 348.518 95.8555C349.429 96.6953 349.96 97.8607 350.109 99.3516H348.225C348.062 98.2188 347.707 97.3984 347.16 96.8906C346.62 96.3828 345.861 96.1289 344.885 96.1289C343.687 96.1289 342.746 96.5716 342.062 97.457C341.385 98.3424 341.047 99.6022 341.047 101.236V102.613C341.047 104.156 341.369 105.383 342.014 106.295C342.658 107.206 343.56 107.662 344.719 107.662C345.76 107.662 346.558 107.428 347.111 106.959C347.671 106.484 348.042 105.66 348.225 104.488H350.109ZM356.867 102.662C355.259 102.2 354.087 101.633 353.352 100.963C352.622 100.286 352.258 99.4525 352.258 98.4629C352.258 97.3431 352.704 96.4186 353.596 95.6895C354.494 94.9538 355.66 94.5859 357.092 94.5859C358.068 94.5859 358.938 94.7747 359.699 95.1523C360.467 95.5299 361.06 96.0508 361.477 96.7148C361.9 97.3789 362.111 98.1048 362.111 98.8926H360.227C360.227 98.0332 359.953 97.3594 359.406 96.8711C358.859 96.3763 358.088 96.1289 357.092 96.1289C356.167 96.1289 355.445 96.334 354.924 96.7441C354.41 97.1478 354.152 97.7109 354.152 98.4336C354.152 99.013 354.396 99.5046 354.885 99.9082C355.38 100.305 356.216 100.67 357.395 101.002C358.579 101.334 359.504 101.702 360.168 102.105C360.839 102.503 361.333 102.968 361.652 103.502C361.978 104.036 362.141 104.664 362.141 105.387C362.141 106.539 361.691 107.464 360.793 108.16C359.895 108.85 358.693 109.195 357.189 109.195C356.213 109.195 355.301 109.01 354.455 108.639C353.609 108.261 352.954 107.747 352.492 107.096C352.036 106.445 351.809 105.706 351.809 104.879H353.693C353.693 105.738 354.009 106.419 354.641 106.92C355.279 107.415 356.128 107.662 357.189 107.662C358.179 107.662 358.938 107.46 359.465 107.057C359.992 106.653 360.256 106.103 360.256 105.406C360.256 104.71 360.012 104.173 359.523 103.795C359.035 103.411 358.15 103.033 356.867 102.662ZM368.742 102.662C367.134 102.2 365.962 101.633 365.227 100.963C364.497 100.286 364.133 99.4525 364.133 98.4629C364.133 97.3431 364.579 96.4186 365.471 95.6895C366.369 94.9538 367.535 94.5859 368.967 94.5859C369.943 94.5859 370.812 94.7747 371.574 95.1523C372.342 95.5299 372.935 96.0508 373.352 96.7148C373.775 97.3789 373.986 98.1048 373.986 98.8926H372.102C372.102 98.0332 371.828 97.3594 371.281 96.8711C370.734 96.3763 369.963 96.1289 368.967 96.1289C368.042 96.1289 367.32 96.334 366.799 96.7441C366.285 97.1478 366.027 97.7109 366.027 98.4336C366.027 99.013 366.271 99.5046 366.76 99.9082C367.255 100.305 368.091 100.67 369.27 101.002C370.454 101.334 371.379 101.702 372.043 102.105C372.714 102.503 373.208 102.968 373.527 103.502C373.853 104.036 374.016 104.664 374.016 105.387C374.016 106.539 373.566 107.464 372.668 108.16C371.77 108.85 370.568 109.195 369.064 109.195C368.088 109.195 367.176 109.01 366.33 108.639C365.484 108.261 364.829 107.747 364.367 107.096C363.911 106.445 363.684 105.706 363.684 104.879H365.568C365.568 105.738 365.884 106.419 366.516 106.92C367.154 107.415 368.003 107.662 369.064 107.662C370.054 107.662 370.812 107.46 371.34 107.057C371.867 106.653 372.131 106.103 372.131 105.406C372.131 104.71 371.887 104.173 371.398 103.795C370.91 103.411 370.025 103.033 368.742 102.662Z" fill="#292929"/>
<path d="M196.607 4.78125H198.492V14.8496C198.492 16.2103 198.082 17.2747 197.262 18.043C196.448 18.8112 195.361 19.1953 194 19.1953C192.587 19.1953 191.487 18.834 190.699 18.1113C189.911 17.3887 189.518 16.3763 189.518 15.0742H191.393C191.393 15.888 191.614 16.5228 192.057 16.9785C192.506 17.4342 193.154 17.6621 194 17.6621C194.775 17.6621 195.4 17.418 195.875 16.9297C196.357 16.4414 196.601 15.7578 196.607 14.8789V4.78125ZM205.875 12.6621C204.267 12.1999 203.095 11.6335 202.359 10.9629C201.63 10.2858 201.266 9.45247 201.266 8.46289C201.266 7.3431 201.712 6.41862 202.604 5.68945C203.502 4.95378 204.667 4.58594 206.1 4.58594C207.076 4.58594 207.945 4.77474 208.707 5.15234C209.475 5.52995 210.068 6.05078 210.484 6.71484C210.908 7.37891 211.119 8.10482 211.119 8.89258H209.234C209.234 8.0332 208.961 7.35938 208.414 6.87109C207.867 6.3763 207.096 6.12891 206.1 6.12891C205.175 6.12891 204.452 6.33398 203.932 6.74414C203.417 7.14779 203.16 7.71094 203.16 8.43359C203.16 9.01302 203.404 9.50456 203.893 9.9082C204.387 10.3053 205.224 10.6699 206.402 11.002C207.587 11.334 208.512 11.7018 209.176 12.1055C209.846 12.5026 210.341 12.9681 210.66 13.502C210.986 14.0358 211.148 14.6641 211.148 15.3867C211.148 16.5391 210.699 17.4635 209.801 18.1602C208.902 18.8503 207.701 19.1953 206.197 19.1953C205.221 19.1953 204.309 19.0098 203.463 18.6387C202.617 18.2611 201.962 17.7467 201.5 17.0957C201.044 16.4447 200.816 15.7057 200.816 14.8789H202.701C202.701 15.7383 203.017 16.4186 203.648 16.9199C204.286 17.4147 205.136 17.6621 206.197 17.6621C207.187 17.6621 207.945 17.4603 208.473 17.0566C209 16.653 209.264 16.1029 209.264 15.4062C209.264 14.7096 209.02 14.1725 208.531 13.7949C208.043 13.4108 207.158 13.0332 205.875 12.6621Z" fill="#292929"/>
<path d="M344.357 275.51L348.42 263.781H350.471L345.197 278H343.537L338.273 263.781H340.314L344.357 275.51ZM352.385 278V263.781H357.033C358.576 263.781 359.735 264.1 360.51 264.738C361.291 265.376 361.682 266.32 361.682 267.57C361.682 268.234 361.493 268.824 361.115 269.338C360.738 269.846 360.223 270.24 359.572 270.52C360.34 270.734 360.946 271.145 361.389 271.75C361.838 272.349 362.062 273.065 362.062 273.898C362.062 275.174 361.649 276.177 360.822 276.906C359.995 277.635 358.827 278 357.316 278H352.385ZM354.26 271.35V276.467H357.355C358.228 276.467 358.915 276.242 359.416 275.793C359.924 275.337 360.178 274.712 360.178 273.918C360.178 272.206 359.247 271.35 357.385 271.35H354.26ZM354.26 269.846H357.092C357.912 269.846 358.566 269.641 359.055 269.23C359.549 268.82 359.797 268.264 359.797 267.561C359.797 266.779 359.569 266.213 359.113 265.861C358.658 265.503 357.964 265.324 357.033 265.324H354.26V269.846ZM372.697 274.289H366.74L365.402 278H363.469L368.898 263.781H370.539L375.979 278H374.055L372.697 274.289ZM367.307 272.746H372.141L369.719 266.096L367.307 272.746Z" fill="#292929"/>
<path d="M176.492 355.721H170.525V362H168.65V347.781H177.459V349.324H170.525V354.188H176.492V355.721ZM181.717 362H179.842V347.781H181.717V362ZM195.652 360.135C195.171 360.825 194.497 361.342 193.631 361.688C192.771 362.026 191.769 362.195 190.623 362.195C189.464 362.195 188.436 361.925 187.537 361.385C186.639 360.838 185.942 360.063 185.447 359.061C184.959 358.058 184.708 356.896 184.695 355.574V354.334C184.695 352.192 185.193 350.532 186.189 349.354C187.192 348.175 188.598 347.586 190.408 347.586C191.893 347.586 193.087 347.967 193.992 348.729C194.897 349.484 195.451 350.558 195.652 351.951H193.777C193.426 350.07 192.306 349.129 190.418 349.129C189.161 349.129 188.208 349.572 187.557 350.457C186.912 351.336 186.587 352.612 186.58 354.285V355.447C186.58 357.042 186.945 358.312 187.674 359.256C188.403 360.193 189.389 360.662 190.633 360.662C191.336 360.662 191.951 360.584 192.479 360.428C193.006 360.271 193.442 360.008 193.787 359.637V356.443H190.496V354.92H195.652V360.135ZM201.209 347.781L205.857 359.383L210.506 347.781H212.938V362H211.062V356.463L211.238 350.486L206.57 362H205.135L200.477 350.516L200.662 356.463V362H198.787V347.781H201.209ZM224.275 358.289H218.318L216.98 362H215.047L220.477 347.781H222.117L227.557 362H225.633L224.275 358.289ZM218.885 356.746H223.719L221.297 350.096L218.885 356.746Z" fill="#292929"/>
<path d="M58.6602 263.781V273.449C58.6536 274.79 58.2305 275.887 57.3906 276.74C56.5573 277.593 55.4245 278.072 53.9922 278.176L53.4941 278.195C51.9382 278.195 50.6979 277.775 49.7734 276.936C48.849 276.096 48.3802 274.94 48.3672 273.469V263.781H50.2227V273.41C50.2227 274.439 50.5059 275.24 51.0723 275.812C51.6387 276.379 52.446 276.662 53.4941 276.662C54.5553 276.662 55.3659 276.379 55.9258 275.812C56.4922 275.246 56.7754 274.449 56.7754 273.42V263.781H58.6602ZM63.6309 278H61.7559V263.781H63.6309V278Z" fill="#292929"/>
<line x1="201" y1="34" x2="201" y2="334" stroke="#292929" stroke-opacity="0.7"/>
<line x1="71.25" y1="108.572" x2="331.058" y2="258.572" stroke="#292929" stroke-opacity="0.7"/>
<line x1="331.058" y1="108.439" x2="71.25" y2="258.439" stroke="#292929" stroke-opacity="0.7"/>
<path d="M72.5 109.005L201 34.5055L329.5 109.505L329 257.505L201 331.505L73 257.505L72.5 109.005Z" stroke="#292929" stroke-opacity="0.7"/>
<path d="M98 124.005L201 64.5055L304 124.005L303.5 242.505L201 301.505L98.5 242.505L98 124.005Z" stroke="#292929" stroke-opacity="0.7"/>
<path d="M124 139.005L201 94.5055L278 139.005L277.5 227.505L201 271.505L124.5 227.505L124 139.005Z" stroke="#292929" stroke-opacity="0.7"/>
<path d="M150 154.005L201 124.505L252 154.005L251.5 212.505L201 241.505L150.5 212.505L150 154.005Z" stroke="#292929" stroke-opacity="0.7"/>
<path d="M176 169.005L201 154.505L226 169.005L225.5 197.505L201 211.505L176.5 197.505L176 169.005Z" stroke="#292929" stroke-opacity="0.7"/>
<path d="M125 139C146.2 145 184.833 132.167 201.5 125C210.7 149 239 154.667 252 154.5C243.6 186.1 265.167 216.333 277 227.5C239.8 230.7 210.833 257.833 201 271C197.8 245 166.333 221.167 151 212.5C158.2 188.5 136.667 153.5 125 139Z" fill="#5E1FA1" fill-opacity="0.6"/>
</svg>
